# 3ds Max Wavefront OBJ Exporter v0.97b - (c)2007 guruware
# File Created: 24.04.2014 23:51:54

mtllib palte.mtl

#
# object low_poly001
#

v  -6.3532 22.3522 -11.4345
v  2.2065 22.3522 -12.9438
v  9.7337 22.3522 -8.5979
v  12.7065 22.3522 -0.4304
v  9.7337 22.3522 7.7372
v  2.2065 22.3522 12.0831
v  -6.3532 22.3522 10.5738
v  -11.9402 22.3522 3.9155
v  -11.9402 22.3522 -4.7762
v  17.4810 26.0498 -15.7465
v  22.6899 26.0498 -1.4349
v  17.4809 26.0498 12.8767
v  4.2913 26.0498 20.4917
v  -10.7073 26.0498 17.8470
v  -20.4970 26.0498 6.1801
v  -20.4970 26.0498 -9.0499
v  -10.7073 26.0498 -20.7168
v  4.2913 26.0498 -23.3615
v  9.2822 25.1721 -8.2297
v  2.1100 25.1732 -12.3741
v  -6.0405 25.1685 -10.9228
v  -11.3312 25.1594 -4.5772
v  -11.3044 25.1493 3.6653
v  -6.0034 25.1438 9.9615
v  2.0993 25.1465 11.3971
v  9.2446 25.1557 7.2990
v  12.0941 25.1657 -0.4484
v  16.4509 29.0710 -14.8736
v  21.2956 29.0552 -1.4203
v  16.3493 29.0292 11.9499
v  4.0154 29.0035 18.9917
v  -9.9329 28.9953 16.5110
v  -19.0767 29.0115 5.6787
v  -19.1524 29.0391 -8.5421
v  -10.0304 29.0622 -19.5200
v  4.0550 29.0734 -22.0393
# 36 vertices

vn -0.1091 -0.9779 -0.1784
vn 0.0336 -0.9795 -0.1987
vn 0.1574 -0.9791 -0.1284
vn 0.2136 -0.9769 0.0063
vn 0.1706 -0.9734 0.1528
vn 0.0374 -0.9702 0.2392
vn -0.1220 -0.9693 0.2135
vn -0.2217 -0.9712 0.0873
vn -0.2124 -0.9747 -0.0694
vn 0.7173 -0.3468 -0.6043
vn 0.9424 -0.3346 -0.0034
vn 0.7293 -0.3152 0.6072
vn 0.1677 -0.2968 0.9401
vn -0.4795 -0.2907 0.8280
vn -0.8972 -0.3014 0.3228
vn -0.8887 -0.3212 -0.3273
vn -0.4684 -0.3391 -0.8158
vn 0.1630 -0.3485 -0.9230
vn -0.1770 0.9736 0.1444
vn -0.0378 0.9740 0.2233
vn 0.1227 0.9719 0.2007
vn 0.2392 0.9678 0.0780
vn 0.2498 0.9633 -0.0984
vn 0.1375 0.9608 -0.2406
vn -0.0420 0.9621 -0.2696
vn -0.1920 0.9662 -0.1722
vn -0.2403 0.9707 -0.0071
vn 0.3784 0.8706 -0.3144
vn 0.4783 0.8782 0.0062
vn 0.3451 0.8894 0.2998
vn 0.0704 0.8993 0.4317
vn -0.2156 0.9020 0.3740
vn -0.4155 0.8958 0.1576
vn -0.4408 0.8846 -0.1521
vn -0.2477 0.8744 -0.4172
vn 0.0839 0.8693 -0.4872
# 36 vertex normals

vt 0.8390 0.3524 0.0000
vt 0.7471 0.3686 0.0000
vt 0.6663 0.3219 0.0000
vt 0.6345 0.2342 0.0000
vt 0.6666 0.1467 0.0000
vt 0.7473 0.1003 0.0000
vt 0.8389 0.1165 0.0000
vt 0.8987 0.1878 0.0000
vt 0.8988 0.2809 0.0000
vt 0.5776 0.4030 0.0000
vt 0.5201 0.2446 0.0000
vt 0.5777 0.0862 0.0000
vt 0.7237 0.0020 0.0000
vt 0.8897 0.0313 0.0000
vt 0.9980 0.1605 0.0000
vt 0.9979 0.3290 0.0000
vt 0.8895 0.4581 0.0000
vt 0.7236 0.4873 0.0000
vt 0.2426 0.1473 0.0000
vt 0.3311 0.1628 0.0000
vt 0.3886 0.2317 0.0000
vt 0.3882 0.3212 0.0000
vt 0.3305 0.3893 0.0000
vt 0.2429 0.4045 0.0000
vt 0.1658 0.3601 0.0000
vt 0.1350 0.2765 0.0000
vt 0.1651 0.1924 0.0000
vt 0.2283 0.0352 0.0000
vt 0.0900 0.1154 0.0000
vt 0.0359 0.2655 0.0000
vt 0.0908 0.4149 0.0000
vt 0.2284 0.4942 0.0000
vt 0.3851 0.4670 0.0000
vt 0.4879 0.3453 0.0000
vt 0.4884 0.1856 0.0000
vt 0.3858 0.0629 0.0000
vt 0.0642 0.0936 0.0000
vt 0.2225 0.0020 0.0000
vt 0.0020 0.2654 0.0000
vt 0.0647 0.4367 0.0000
vt 0.2226 0.5278 0.0000
vt 0.4021 0.4963 0.0000
vt 0.5197 0.3567 0.0000
vt 0.5201 0.1740 0.0000
vt 0.4026 0.0338 0.0000
# 45 texture coords

g low_poly001
usemtl wire_113135006
s 1
f 1/1/1 2/2/2 3/3/3 
f 4/4/4 5/5/5 6/6/6 
f 3/3/3 4/4/4 6/6/6 
f 6/6/6 7/7/7 8/8/8 
f 3/3/3 6/6/6 8/8/8 
f 1/1/1 3/3/3 8/8/8 
f 1/1/1 8/8/8 9/9/9 
f 4/4/4 3/3/3 10/10/10 
f 10/10/10 11/11/11 4/4/4 
f 5/5/5 4/4/4 11/11/11 
f 11/11/11 12/12/12 5/5/5 
f 6/6/6 5/5/5 12/12/12 
f 12/12/12 13/13/13 6/6/6 
f 7/7/7 6/6/6 13/13/13 
f 13/13/13 14/14/14 7/7/7 
f 8/8/8 7/7/7 14/14/14 
f 14/14/14 15/15/15 8/8/8 
f 9/9/9 8/8/8 15/15/15 
f 15/15/15 16/16/16 9/9/9 
f 1/1/1 9/9/9 16/16/16 
f 16/16/16 17/17/17 1/1/1 
f 2/2/2 1/1/1 17/17/17 
f 17/17/17 18/18/18 2/2/2 
f 3/3/3 2/2/2 18/18/18 
f 18/18/18 10/10/10 3/3/3 
f 19/19/19 20/20/20 21/21/21 
f 21/21/21 22/22/22 23/23/23 
f 19/19/19 21/21/21 23/23/23 
f 23/23/23 24/24/24 25/25/25 
f 19/19/19 23/23/23 25/25/25 
f 25/25/25 26/26/26 27/27/27 
f 19/19/19 25/25/25 27/27/27 
f 28/28/28 19/19/19 27/27/27 
f 27/27/27 29/29/29 28/28/28 
f 29/29/29 27/27/27 26/26/26 
f 26/26/26 30/30/30 29/29/29 
f 30/30/30 26/26/26 25/25/25 
f 25/25/25 31/31/31 30/30/30 
f 31/31/31 25/25/25 24/24/24 
f 24/24/24 32/32/32 31/31/31 
f 32/32/32 24/24/24 23/23/23 
f 23/23/23 33/33/33 32/32/32 
f 33/33/33 23/23/23 22/22/22 
f 22/22/22 34/34/34 33/33/33 
f 34/34/34 22/22/22 21/21/21 
f 21/21/21 35/35/35 34/34/34 
f 35/35/35 21/21/21 20/20/20 
f 20/20/20 36/36/36 35/35/35 
f 36/36/36 20/20/20 19/19/19 
f 19/19/19 28/28/28 36/36/36 
f 28/28/28 29/29/29 11/37/11 
f 11/37/11 10/38/10 28/28/28 
f 29/29/29 30/30/30 12/39/12 
f 12/39/12 11/37/11 29/29/29 
f 30/30/30 31/31/31 13/40/13 
f 13/40/13 12/39/12 30/30/30 
f 31/31/31 32/32/32 14/41/14 
f 14/41/14 13/40/13 31/31/31 
f 32/32/32 33/33/33 15/42/15 
f 15/42/15 14/41/14 32/32/32 
f 33/33/33 34/34/34 16/43/16 
f 16/43/16 15/42/15 33/33/33 
f 34/34/34 35/35/35 17/44/17 
f 17/44/17 16/43/16 34/34/34 
f 35/35/35 36/36/36 18/45/18 
f 18/45/18 17/44/17 35/35/35 
f 36/36/36 28/28/28 10/38/10 
f 10/38/10 18/45/18 36/36/36 
# 68 faces

